<svg width="17" height="16" viewBox="0 0 17 16" fill="none" xmlns="http://www.w3.org/2000/svg">
<path fill-rule="evenodd" clip-rule="evenodd" d="M2.5944 2.00567C2.52929 2.00077 2.43894 2.00033 2.2695 2.00033H1.16667C0.798477 2.00033 0.5 1.70185 0.5 1.33366C0.5 0.965472 0.798477 0.666995 1.16667 0.666995H2.2695C2.27578 0.666995 2.28207 0.666995 2.28835 0.666994C2.43146 0.666976 2.57315 0.666959 2.69458 0.676108C2.82971 0.686289 2.9867 0.710203 3.14911 0.782649C3.37767 0.884606 3.57293 1.04883 3.71254 1.25655C3.81174 1.40415 3.8622 1.55472 3.89538 1.6861C3.9252 1.80417 3.94946 1.94377 3.97397 2.08476C3.97504 2.09095 3.97612 2.09714 3.9772 2.10334L4.13605 3.01672L12.812 3.27354C13.152 3.28359 13.4458 3.29228 13.6878 3.31893C13.9436 3.34709 14.1971 3.40006 14.4404 3.52964C14.809 3.726 15.1068 4.03282 15.2922 4.40704C15.4145 4.65401 15.46 4.90903 15.4805 5.16551C15.5 5.40816 15.5 5.7021 15.5 6.04223V6.0914C15.5 6.41104 15.5 6.68832 15.4821 6.91825C15.4631 7.16209 15.4213 7.40428 15.3095 7.64159C15.1395 8.0028 14.8653 8.30485 14.5221 8.50888C14.2967 8.64293 14.0597 8.70794 13.8188 8.75033C13.5917 8.79029 13.3157 8.81699 12.9975 8.84777L6.50826 9.47576C6.18213 9.50733 5.89956 9.53469 5.66381 9.53884C5.41403 9.54323 5.1636 9.52383 4.91219 9.43147C4.53514 9.29296 4.20854 9.04413 3.97491 8.71737C3.81913 8.49949 3.73395 8.2632 3.67188 8.02121C3.6133 7.79282 3.56467 7.51313 3.50854 7.19033L2.66358 2.33179C2.63455 2.16486 2.61864 2.07591 2.60265 2.01261C2.60208 2.01036 2.60153 2.00822 2.601 2.0062C2.59891 2.00602 2.59672 2.00585 2.5944 2.00567ZM4.36923 4.35754L4.81796 6.93772C4.8795 7.29156 4.9195 7.51875 4.96341 7.68995C5.00529 7.85324 5.03842 7.91236 5.05953 7.94188C5.1374 8.0508 5.24627 8.13375 5.37195 8.17992C5.40602 8.19243 5.47181 8.20868 5.64036 8.20571C5.81708 8.2026 6.04674 8.18086 6.40421 8.14627L12.8451 7.52296C13.1941 7.48919 13.4178 7.46706 13.5877 7.43717C13.7495 7.40869 13.8099 7.38114 13.8407 7.36283C13.9551 7.29482 14.0465 7.19413 14.1032 7.07373C14.1184 7.0413 14.1401 6.97853 14.1528 6.81474C14.1662 6.64279 14.1667 6.41791 14.1667 6.06733C14.1667 5.695 14.1662 5.45509 14.1515 5.2722C14.1374 5.0972 14.1136 5.03159 14.0974 4.99887C14.0356 4.87412 13.9363 4.77185 13.8135 4.7064C13.7812 4.68923 13.7164 4.66346 13.5418 4.64424C13.3595 4.62416 13.1197 4.61656 12.7475 4.60554L4.36923 4.35754Z" fill="white"/>
<path fill-rule="evenodd" clip-rule="evenodd" d="M6.16667 11.667C5.79848 11.667 5.5 11.9655 5.5 12.3337C5.5 12.7018 5.79848 13.0003 6.16667 13.0003C6.53486 13.0003 6.83333 12.7018 6.83333 12.3337C6.83333 11.9655 6.53486 11.667 6.16667 11.667ZM4.16667 12.3337C4.16667 11.2291 5.0621 10.3337 6.16667 10.3337C7.27124 10.3337 8.16667 11.2291 8.16667 12.3337C8.16667 13.4382 7.27124 14.3337 6.16667 14.3337C5.0621 14.3337 4.16667 13.4382 4.16667 12.3337Z" fill="white"/>
<path fill-rule="evenodd" clip-rule="evenodd" d="M12.5 11.667C12.1318 11.667 11.8333 11.9655 11.8333 12.3337C11.8333 12.7018 12.1318 13.0003 12.5 13.0003C12.8682 13.0003 13.1667 12.7018 13.1667 12.3337C13.1667 11.9655 12.8682 11.667 12.5 11.667ZM10.5 12.3337C10.5 11.2291 11.3954 10.3337 12.5 10.3337C13.6046 10.3337 14.5 11.2291 14.5 12.3337C14.5 13.4382 13.6046 14.3337 12.5 14.3337C11.3954 14.3337 10.5 13.4382 10.5 12.3337Z" fill="white"/>
</svg>
