<svg width="20" height="20" viewBox="0 0 20 20" fill="none" xmlns="http://www.w3.org/2000/svg">
<path d="M14.6373 0.836822L12.3229 0.833008C9.72281 0.833008 8.04249 2.60392 8.04249 5.34487V7.42513H5.71548C5.5144 7.42513 5.35156 7.59259 5.35156 7.79915V10.8132C5.35156 11.0198 5.51458 11.187 5.71548 11.187H8.04249V18.7925C8.04249 18.9991 8.20532 19.1663 8.4064 19.1663H11.4425C11.6436 19.1663 11.8064 18.9989 11.8064 18.7925V11.187H14.5272C14.7283 11.187 14.8911 11.0198 14.8911 10.8132L14.8923 7.79915C14.8923 7.69997 14.8538 7.60499 14.7857 7.5348C14.7175 7.46461 14.6247 7.42513 14.5282 7.42513H11.8064V5.66166C11.8064 4.81407 12.003 4.38379 13.0779 4.38379L14.637 4.38322C14.8379 4.38322 15.0007 4.21576 15.0007 4.00939V1.21065C15.0007 1.00447 14.838 0.837204 14.6373 0.836822Z"/>
</svg>
