<svg width="16" height="16" viewBox="0 0 16 16" fill="none" xmlns="http://www.w3.org/2000/svg">
<g clip-path="url(#clip0_2837_6976)">
<path d="M15.2224 10.7392C15.2224 10.7392 15.2224 10.7392 15.2224 10.7392L9.46156 7.13893C9.36112 7.07615 9.24504 7.04285 9.12661 7.04285H8.63205V6.77421C9.61015 6.49806 10.3291 5.59751 10.3291 4.53223C10.3291 3.24796 9.28426 2.20312 8 2.20312C6.7157 2.20312 5.6709 3.24796 5.6709 4.53223C5.6709 4.8813 5.95388 5.16428 6.30295 5.16428C6.65203 5.16428 6.93501 4.8813 6.93501 4.53223C6.93501 3.94499 7.41273 3.46723 8 3.46723C8.58723 3.46723 9.06496 3.94499 9.06496 4.53223C9.06496 5.11946 8.5872 5.59722 8 5.59722C7.65093 5.59722 7.36795 5.8802 7.36795 6.22927V7.04285H6.87339C6.75496 7.04285 6.63888 7.07615 6.53844 7.13893L0.777607 10.7392C0.290709 11.0436 0 11.5681 0 12.1423C0 13.0546 0.742212 13.7968 1.6545 13.7968H14.3455C15.2578 13.7968 16 13.0546 16 12.1423C16 11.5681 15.7093 11.0436 15.2224 10.7392ZM14.3455 12.5327H1.6545C1.43924 12.5327 1.26411 12.3576 1.26411 12.1423C1.26411 12.0068 1.3327 11.883 1.44758 11.8112L7.05463 8.30696H8.94534L14.5524 11.8112C14.6673 11.883 14.7359 12.0068 14.7359 12.1423C14.7359 12.3576 14.5607 12.5327 14.3455 12.5327Z" fill="#424551"/>
</g>
<defs>
<clipPath id="clip0_2837_6976">
<rect width="16" height="16" fill="white"/>
</clipPath>
</defs>
</svg>
