<svg width="78" height="21" viewBox="0 0 78 21" fill="none" xmlns="http://www.w3.org/2000/svg">
<path d="M14.2745 2.38137C13.3584 1.3372 11.7024 0.889542 9.58398 0.889542H3.43554C3.22583 0.889429 3.02296 0.964169 2.86345 1.10031C2.70394 1.23645 2.59825 1.42505 2.5654 1.63217L0.00642579 17.8698C-0.0054398 17.9452 -0.000834347 18.0222 0.0199251 18.0956C0.0406846 18.1689 0.0771046 18.2369 0.126676 18.2949C0.176247 18.3528 0.237791 18.3993 0.307067 18.4312C0.376344 18.4631 0.451706 18.4796 0.527962 18.4795H4.32374L5.27706 12.4328L5.24751 12.6222C5.27973 12.4155 5.38471 12.2271 5.54354 12.0909C5.70237 11.9548 5.90461 11.8798 6.11382 11.8796H7.91758C11.4611 11.8796 14.2357 10.4403 15.0462 6.27675C15.0702 6.15361 15.091 6.03376 15.1091 5.91665C15.3499 4.37776 15.1074 3.33031 14.2751 2.38191" fill="#003087"/>
<path d="M60.7441 10.108C60.5121 11.6316 59.3486 11.6316 58.2234 11.6316H57.5831L58.0324 8.78693C58.0598 8.6151 58.2076 8.48868 58.3816 8.48868H58.6755C59.4416 8.48868 60.1651 8.48868 60.5383 8.92484C60.7611 9.18589 60.8284 9.57334 60.7441 10.108ZM60.2543 6.13274H56.0098C55.8692 6.13281 55.7332 6.18298 55.6263 6.27425C55.5194 6.36552 55.4485 6.49192 55.4264 6.63074L53.7113 17.5141C53.7034 17.5645 53.7065 17.6161 53.7204 17.6652C53.7343 17.7143 53.7587 17.7599 53.7919 17.7987C53.825 17.8376 53.8662 17.8688 53.9126 17.8902C53.9589 17.9116 54.0094 17.9228 54.0604 17.9229H56.2385C56.4416 17.9229 56.6145 17.7751 56.6462 17.5748L57.1333 14.4883C57.1782 14.202 57.4255 13.9903 57.7156 13.9903H59.0585C61.855 13.9903 63.4683 12.638 63.8897 9.95588C64.0796 8.78365 63.8974 7.86207 63.3485 7.21685C62.7449 6.50761 61.675 6.13219 60.2548 6.13219" fill="#009CDE"/>
<path d="M30.4707 10.1081C30.2387 11.6317 29.0752 11.6317 27.9495 11.6317H27.3092L27.7585 8.78704C27.7859 8.6152 27.9337 8.48878 28.1077 8.48878H28.4016C29.1677 8.48878 29.8912 8.48878 30.2644 8.92495C30.4877 9.18599 30.555 9.57345 30.4707 10.1081ZM29.981 6.13284H25.7364C25.4464 6.13284 25.199 6.34408 25.1536 6.63084L23.4379 17.5142C23.43 17.5646 23.433 17.6162 23.4469 17.6654C23.4607 17.7146 23.4851 17.7602 23.5183 17.799C23.5515 17.8379 23.5927 17.8691 23.6391 17.8905C23.6855 17.9119 23.736 17.9229 23.7871 17.923H25.8141C26.1042 17.923 26.351 17.7117 26.3964 17.4249L26.8599 14.4889C26.9048 14.2022 27.1522 13.9909 27.4422 13.9909H28.7852C31.5817 13.9909 33.195 12.6381 33.6164 9.95598C33.8063 8.78375 33.624 7.86217 33.0751 7.21696C32.4715 6.50771 31.4016 6.13229 29.9815 6.13229L29.981 6.13284ZM39.8354 14.0155C39.6384 15.1768 38.7174 15.9567 37.5413 15.9567C36.9519 15.9567 36.4796 15.7668 36.1765 15.4078C35.8755 15.052 35.7627 14.5447 35.858 13.9805C36.0407 12.8291 36.9776 12.0246 38.1356 12.0246C38.713 12.0246 39.1809 12.2162 39.4906 12.5784C39.802 12.9435 39.9246 13.4535 39.8354 14.0155ZM42.668 10.0589H40.6355C40.551 10.0588 40.4693 10.0889 40.405 10.1438C40.3408 10.1987 40.2983 10.2747 40.2853 10.3582L40.1966 10.9263L40.0543 10.7205C39.6143 10.0818 38.6331 9.86787 37.6535 9.86787C35.4081 9.86787 33.49 11.5698 33.1167 13.9559C32.9225 15.1473 33.1983 16.285 33.8736 17.0791C34.4936 17.8086 35.3786 18.1123 36.4331 18.1123C38.2434 18.1123 39.2471 16.9499 39.2471 16.9499L39.1563 17.5147C39.1483 17.5652 39.1513 17.6169 39.1652 17.6661C39.1791 17.7153 39.2036 17.7609 39.2368 17.7998C39.2701 17.8386 39.3113 17.8698 39.3578 17.8912C39.4043 17.9126 39.4548 17.9236 39.506 17.9235H41.336C41.626 17.9235 41.8734 17.7128 41.9188 17.4255L43.0177 10.4682C43.0256 10.4177 43.0225 10.366 43.0085 10.3168C42.9945 10.2676 42.9701 10.222 42.9368 10.1831C42.9035 10.1443 42.8622 10.1131 42.8157 10.0917C42.7692 10.0704 42.7186 10.0594 42.6675 10.0594" fill="#003087"/>
<path d="M70.1076 14.0155C69.9106 15.1768 68.9896 15.9567 67.8135 15.9567C67.2241 15.9567 66.7518 15.7668 66.4486 15.4078C66.1476 15.052 66.0349 14.5447 66.1301 13.9805C66.3129 12.8291 67.2493 12.0246 68.4078 12.0246C68.9852 12.0246 69.4531 12.2162 69.7628 12.5784C70.0742 12.9435 70.1968 13.4535 70.1076 14.0155ZM72.9402 10.0589H70.9077C70.8232 10.0588 70.7414 10.0889 70.6772 10.1438C70.613 10.1987 70.5705 10.2747 70.5574 10.3582L70.4688 10.9263L70.3265 10.7205C69.8865 10.0818 68.9053 9.86787 67.9257 9.86787C65.6808 9.86787 63.7627 11.5698 63.3889 13.9559C63.1946 15.1473 63.471 16.285 64.1463 17.0791C64.7664 17.8086 65.6513 18.1123 66.7058 18.1123C68.5167 18.1123 69.5204 16.9499 69.5204 16.9499L69.4295 17.5147C69.4214 17.5652 69.4243 17.6168 69.438 17.666C69.4518 17.7152 69.4761 17.7609 69.5093 17.7997C69.5424 17.8386 69.5837 17.8699 69.6301 17.8912C69.6765 17.9126 69.727 17.9236 69.7781 17.9235H71.6076C71.8977 17.9235 72.145 17.7128 72.191 17.4255L73.2899 10.4682C73.2978 10.4177 73.2947 10.366 73.2807 10.3168C73.2667 10.2676 73.2423 10.222 73.209 10.1831C73.1757 10.1443 73.1344 10.1131 73.0879 10.0917C73.0414 10.0704 72.9908 10.0594 72.9397 10.0594" fill="#009CDE"/>
<path d="M53.4941 10.0592H51.4506C51.2553 10.0592 51.073 10.1561 50.9636 10.3181L48.1452 14.4685L46.9505 10.4801C46.9141 10.3584 46.8394 10.2517 46.7376 10.1758C46.6358 10.0999 46.5122 10.0589 46.3852 10.0587H44.3773C44.321 10.0587 44.2655 10.0722 44.2155 10.0979C44.1654 10.1237 44.1222 10.161 44.0895 10.2068C44.0567 10.2526 44.0354 10.3056 44.0272 10.3613C44.019 10.417 44.0242 10.4738 44.0424 10.5271L46.2916 17.1303L44.176 20.1156C44.1386 20.1686 44.1164 20.2309 44.112 20.2956C44.1076 20.3603 44.121 20.4249 44.1508 20.4825C44.1806 20.5401 44.2257 20.5884 44.2811 20.6222C44.3365 20.6559 44.4001 20.6738 44.4649 20.6738H46.5062C46.6988 20.6738 46.8799 20.5792 46.9905 20.4204L53.7842 10.6147C53.821 10.5617 53.8427 10.4996 53.8468 10.4351C53.8509 10.3707 53.8372 10.3064 53.8073 10.2491C53.7775 10.1919 53.7325 10.1439 53.6772 10.1104C53.622 10.077 53.5587 10.0592 53.4941 10.0592Z" fill="#003087"/>
<path d="M75.3366 6.43252L73.5941 17.515C73.5862 17.5655 73.5893 17.6171 73.6033 17.6663C73.6172 17.7155 73.6416 17.7611 73.6749 17.7999C73.7081 17.8388 73.7493 17.8699 73.7958 17.8913C73.8422 17.9127 73.8927 17.9238 73.9438 17.9238H75.6956C75.9856 17.9238 76.233 17.7126 76.2784 17.4258L77.9962 6.54197C78.0042 6.49145 78.0012 6.4398 77.9873 6.39059C77.9734 6.34137 77.949 6.29575 77.9157 6.25689C77.8825 6.21802 77.8412 6.18684 77.7947 6.16548C77.7482 6.14412 77.6977 6.13309 77.6465 6.13317H75.6863C75.6019 6.13295 75.5202 6.16297 75.4561 6.21779C75.3919 6.2726 75.3495 6.34859 75.3366 6.43197" fill="#009CDE"/>
<path d="M14.2745 2.38137C13.3584 1.3372 11.7024 0.889542 9.58398 0.889542H3.43554C3.22583 0.889429 3.02296 0.964169 2.86345 1.10031C2.70394 1.23645 2.59825 1.42505 2.5654 1.63217L0.00642579 17.8698C-0.0054398 17.9452 -0.000834347 18.0222 0.0199251 18.0956C0.0406846 18.1689 0.0771046 18.2369 0.126676 18.2949C0.176247 18.3528 0.237791 18.3993 0.307067 18.4312C0.376344 18.4631 0.451706 18.4796 0.527962 18.4795H4.32374L5.27706 12.4328L5.24751 12.6222C5.27973 12.4155 5.38471 12.2271 5.54354 12.0909C5.70237 11.9548 5.90461 11.8798 6.11382 11.8796H7.91758C11.4611 11.8796 14.2357 10.4403 15.0462 6.27675C15.0702 6.15361 15.091 6.03376 15.1091 5.91665C15.3499 4.37776 15.1074 3.33031 14.2751 2.38191" fill="#003087"/>
<path d="M6.30162 5.93647C6.33038 5.75549 6.4227 5.59069 6.56201 5.47163C6.70132 5.35258 6.8785 5.28708 7.06176 5.28688H11.882C12.4528 5.28688 12.9853 5.32409 13.4718 5.4018C13.7378 5.44459 14.0009 5.50344 14.2598 5.57802C14.5538 5.66068 14.8383 5.77403 15.1086 5.91622C15.3505 4.37679 15.1075 3.32988 14.2752 2.38094C13.3585 1.33732 11.703 0.889662 9.58461 0.889662H3.43563C3.22611 0.889811 3.0235 0.964668 2.86421 1.10078C2.70493 1.2369 2.5994 1.42535 2.56658 1.63229L0.00651227 17.8683C-0.00543363 17.9436 -0.00090687 18.0207 0.0197809 18.0941C0.0404687 18.1675 0.0768255 18.2355 0.126346 18.2935C0.175866 18.3515 0.237373 18.3981 0.306627 18.43C0.375882 18.462 0.451237 18.4785 0.527501 18.4785H4.32383L5.27715 12.4313L6.30162 5.93647Z" fill="#003087"/>
<path d="M15.1084 5.91594C15.0896 6.03634 15.0686 6.15639 15.0455 6.27603C14.235 10.439 11.4604 11.8789 7.91689 11.8789H6.11259C5.90341 11.879 5.70119 11.9539 5.54242 12.0901C5.38366 12.2263 5.27882 12.4148 5.24683 12.6215L4.32305 18.4782L4.06037 20.1397C4.04993 20.2057 4.05391 20.2731 4.07205 20.3374C4.09018 20.4017 4.12204 20.4612 4.16543 20.512C4.20881 20.5628 4.26269 20.6035 4.32335 20.6315C4.38401 20.6594 4.45 20.6739 4.51678 20.6738H7.7166C8.0953 20.6738 8.41709 20.398 8.47674 20.0242L8.50793 19.8612L9.11101 16.0391L9.14932 15.8279C9.17799 15.6467 9.27036 15.4818 9.40981 15.3627C9.54926 15.2436 9.72663 15.1782 9.91001 15.1783H10.3889C13.4885 15.1783 15.9156 13.9196 16.6249 10.277C16.9204 8.75565 16.7671 7.48438 15.9846 6.5918C15.7361 6.31507 15.4392 6.08603 15.1084 5.91594Z" fill="#009CDE"/>
<path d="M14.2589 5.57887C14.1352 5.5422 14.0077 5.50937 13.8763 5.48036C13.745 5.45136 13.6093 5.42564 13.4703 5.40374C12.9832 5.32439 12.4513 5.28718 11.8799 5.28718H7.06025C6.8768 5.28695 6.69932 5.35238 6.5599 5.47162C6.42049 5.59086 6.32834 5.75605 6.30011 5.93732L5.27565 12.4333L5.24609 12.6221C5.27808 12.4154 5.38293 12.2269 5.54169 12.0907C5.70046 11.9545 5.90268 11.8796 6.11185 11.8794H7.91616C11.4597 11.8794 14.2343 10.4402 15.0447 6.27662C15.0688 6.15349 15.0891 6.03419 15.1077 5.91653C14.8936 5.80453 14.6707 5.71044 14.4411 5.63523C14.3815 5.61553 14.3207 5.59693 14.2589 5.57832" fill="#012169"/>
</svg>
