<svg width="20" height="20" viewBox="0 0 20 20" fill="none" xmlns="http://www.w3.org/2000/svg">
<path d="M10.2512 0.833008C5.19014 0.833772 2.5 4.05361 2.5 7.56449C2.5 9.19236 3.4162 11.2236 4.8832 11.8675C5.30168 12.0547 5.24629 11.8263 5.60631 10.4589C5.63478 10.3451 5.62016 10.2465 5.52785 10.1404C3.43082 7.73179 5.1186 2.78019 9.95192 2.78019C16.9469 2.78019 15.6399 12.3916 11.1689 12.3916C10.0165 12.3916 9.15803 11.4932 9.42959 10.3818C9.75883 9.05791 10.4035 7.63477 10.4035 6.68066C10.4035 4.2759 6.7956 4.63264 6.7956 7.81887C6.7956 8.80354 7.14639 9.46813 7.14639 9.46813C7.14639 9.46813 5.98556 14.1249 5.77017 14.9949C5.40553 16.4677 5.8194 18.8519 5.85556 19.0574C5.87787 19.1704 6.00556 19.2063 6.07711 19.1131C6.19173 18.9642 7.59488 16.9765 7.98797 15.5396C8.13106 15.0163 8.71801 12.8927 8.71801 12.8927C9.10495 13.5863 10.2204 14.1669 11.4089 14.1669C14.9445 14.1669 17.5 11.0807 17.5 7.25129C17.4877 3.57999 14.3237 0.833008 10.2512 0.833008V0.833008Z"/>
</svg>
