<svg width="16" height="16" viewBox="0 0 16 16" fill="none" xmlns="http://www.w3.org/2000/svg">
<g clip-path="url(#clip0_2837_6350)">
<path fill-rule="evenodd" clip-rule="evenodd" d="M8.0013 0.666992C8.36949 0.666992 8.66797 0.965469 8.66797 1.33366V7.33366H14.668C15.0362 7.33366 15.3346 7.63213 15.3346 8.00033C15.3346 8.36852 15.0362 8.66699 14.668 8.66699H8.66797V14.667C8.66797 15.0352 8.36949 15.3337 8.0013 15.3337C7.63311 15.3337 7.33463 15.0352 7.33463 14.667V8.66699H1.33464C0.966446 8.66699 0.667969 8.36852 0.667969 8.00033C0.667969 7.63213 0.966446 7.33366 1.33464 7.33366H7.33463V1.33366C7.33463 0.965469 7.63311 0.666992 8.0013 0.666992Z" fill="#17696A"/>
</g>
<defs>
<clipPath id="clip0_2837_6350">
<rect width="16" height="16" fill="white"/>
</clipPath>
</defs>
</svg>
