<svg width="16" height="17" viewBox="0 0 16 17" fill="none" xmlns="http://www.w3.org/2000/svg">
<path fill-rule="evenodd" clip-rule="evenodd" d="M2.86128 3.36225C3.12163 3.1019 3.54374 3.1019 3.80409 3.36225L7.99934 7.55751L12.1946 3.36225C12.455 3.1019 12.8771 3.10191 13.1374 3.36225C13.3978 3.6226 13.3978 4.04471 13.1374 4.30506L8.94215 8.50032L13.1374 12.6956C13.3978 12.9559 13.3978 13.378 13.1374 13.6384C12.8771 13.8987 12.455 13.8987 12.1946 13.6384L7.99934 9.44313L3.80409 13.6384C3.54374 13.8987 3.12163 13.8987 2.86128 13.6384C2.60093 13.378 2.60093 12.9559 2.86128 12.6956L7.05654 8.50032L2.86128 4.30506C2.60093 4.04471 2.60093 3.6226 2.86128 3.36225Z" fill="#424551"/>
</svg>
