<svg width="16" height="16" viewBox="0 0 16 16" fill="none" xmlns="http://www.w3.org/2000/svg">
<g clip-path="url(#clip0_2390_8073)">
<path fill-rule="evenodd" clip-rule="evenodd" d="M7.99935 0.666992C8.36754 0.666992 8.66602 0.965469 8.66602 1.33366V7.33366H14.666C15.0342 7.33366 15.3327 7.63213 15.3327 8.00033C15.3327 8.36852 15.0342 8.66699 14.666 8.66699H8.66602V14.667C8.66602 15.0352 8.36754 15.3337 7.99935 15.3337C7.63116 15.3337 7.33268 15.0352 7.33268 14.667V8.66699H1.33268C0.964492 8.66699 0.666016 8.36852 0.666016 8.00033C0.666016 7.63213 0.964492 7.33366 1.33268 7.33366H7.33268V1.33366C7.33268 0.965469 7.63116 0.666992 7.99935 0.666992Z" fill="#17696A"/>
</g>
<defs>
<clipPath id="clip0_2390_8073">
<rect width="16" height="16" fill="white"/>
</clipPath>
</defs>
</svg>
